HIERARCHY
ROOT root
{
	OFFSET	0	13.1	24.9
	CHANNELS 6  Xposition Yposition Zposition Xrotation Yrotation Zrotation
	JOINT spine_1
	{
		OFFSET	0	9.99999	0
		CHANNELS 3  Xrotation Yrotation Zrotation
		JOINT spine_2
		{
			OFFSET	0	112	-10
			CHANNELS 3  Xrotation Yrotation Zrotation
			JOINT spine_3
			{
				OFFSET	0	206.5	19.3
				CHANNELS 3  Xrotation Yrotation Zrotation
				JOINT spine_4
				{
					OFFSET	0	110.4	14.6
					CHANNELS 3  Xrotation Yrotation Zrotation
					JOINT neck_1
					{
						OFFSET	0	71.8	-50.3
						CHANNELS 3  Xrotation Yrotation Zrotation
						JOINT neck_2
						{
							OFFSET	0	86.2	-25.8
							CHANNELS 3  Xrotation Yrotation Zrotation
							JOINT head_ee
							{
								OFFSET	0	179.8	-8.7
								CHANNELS 3  Xrotation Yrotation Zrotation
								End Site
								{
									OFFSET	1	0	0
								}
							}
						}
					}
					JOINT left_clavicle
					{
						OFFSET	-43.2	22.4	-70.8
						CHANNELS 3  Xrotation Yrotation Zrotation
						JOINT left_shoulder
						{
							OFFSET	-93.9	-5.79999	48.7
							CHANNELS 3  Xrotation Yrotation Zrotation
							JOINT left_elbow
							{
								OFFSET	-291.4	-30.8	15.2
								CHANNELS 3  Xrotation Yrotation Zrotation
								JOINT left_lowarm_twist
								{
									OFFSET	-110.7	-3.89999	13.6
									CHANNELS 3  Xrotation Yrotation Zrotation
									JOINT left_hand
									{
										OFFSET	-110.7	-3.89999	13.6
										CHANNELS 3  Xrotation Yrotation Zrotation
										JOINT left_ee
										{
											OFFSET	-80.8	-5.10001	12.1
											CHANNELS 3  Xrotation Yrotation Zrotation
											End Site
											{
												OFFSET	1	0	0
											}
										}
									}
								}
							}
						}
					}
					JOINT right_clavicle
					{
						OFFSET	43.2	22.4	-70.8
						CHANNELS 3  Xrotation Yrotation Zrotation
						JOINT right_shoulder
						{
							OFFSET	93.9	-5.79999	48.7
							CHANNELS 3  Xrotation Yrotation Zrotation
							JOINT right_elbow
							{
								OFFSET	291.4	-30.8	15.2
								CHANNELS 3  Xrotation Yrotation Zrotation
								JOINT right_lowarm_twist
								{
									OFFSET	110.7	-3.89999	13.6
									CHANNELS 3  Xrotation Yrotation Zrotation
									JOINT right_hand
									{
										OFFSET	110.7	-3.89999	13.6
										CHANNELS 3  Xrotation Yrotation Zrotation
										JOINT right_ee
										{
											OFFSET	80.8	-5.10001	12.1
											CHANNELS 3  Xrotation Yrotation Zrotation
											End Site
											{
												OFFSET	1	0	0
											}
										}
									}
								}
							}
						}
					}
				}
			}
		}
	}
	JOINT left_hip
	{
		OFFSET	-82.8	-127.5	0.300001
		CHANNELS 3  Xrotation Yrotation Zrotation
		JOINT left_knee
		{
			OFFSET	-28.2	-396.7	2.2
			CHANNELS 3  Xrotation Yrotation Zrotation
			JOINT left_ankle
			{
				OFFSET	-11.7	-411.3	35.4
				CHANNELS 3  Xrotation Yrotation Zrotation
				JOINT left_toes
				{
					OFFSET	0	-60	-88.6
					CHANNELS 3  Xrotation Yrotation Zrotation
					JOINT left_foot_ee
					{
						OFFSET	-22.5	-16.5	-42.2
						CHANNELS 3  Xrotation Yrotation Zrotation
						End Site
						{
							OFFSET	1	0	0
						}
					}
				}
			}
		}
	}
	JOINT right_hip
	{
		OFFSET	82.8	-127.5	0.300001
		CHANNELS 3  Xrotation Yrotation Zrotation
		JOINT right_knee
		{
			OFFSET	28.2	-396.7	2.2
			CHANNELS 3  Xrotation Yrotation Zrotation
			JOINT right_ankle
			{
				OFFSET	11.7	-411.3	35.4
				CHANNELS 3  Xrotation Yrotation Zrotation
				JOINT right_toes
				{
					OFFSET	0	-60	-88.6
					CHANNELS 3  Xrotation Yrotation Zrotation
					JOINT right_foot_ee
					{
						OFFSET	22.5	-16.5	-42.2
						CHANNELS 3  Xrotation Yrotation Zrotation
						End Site
						{
							OFFSET	1	0	0
						}
					}
				}
			}
		}
	}
}
MOTION
Frames: 16
Frame Time: 0.02
2500.55795637 736.184 -1498.02762743 172.350435406 70.8380824207 -178.11722113 0.30486 0.675033 4.69868 0.31706 0.375018 4.73201 0.353323 -0.599808 4.70885 0.322426 0.150528 4.74443 -16.2289 5.3964 -10.5003 -16.1908 16.3656 -7.99159 -0.0 0.0 -0.0 -9.21376 12.0125 -14.4948 -6.1049 -24.0479 74.454 0.229353 -6.48202 0.0129876 -31.3697 -2.08352 3.37449 2.91864 4.00265 21.4566 -0.0 0.0 -0.0 10.6732 6.42897 -21.2969 -0.375755 6.88003 -73.0666 2.00254 44.7649 -0.82474 16.8629 -0.282865 2.12775 0.998313 0.754686 -6.37466 0.0 0.0 0.0 16.2012 -2.71736 -6.47609 -57.9522 -1.98297 8.29598 39.5175 -0.106249 -4.83501 -30.8674 0.0 0.0 -0.0 0.0 -0.0 8.06696 15.1907 -5.16377 -3.66561 -0.133473 -0.546628 34.7788 -23.1461 4.58891 -22.8838 0.0 0.0 0.0 0.0 0.0 
2493.56916611 735.308 -1486.84910388 173.646951607 68.8775072164 -179.426119311 0.564054 0.62314 4.74001 0.576491 0.320609 4.76996 0.607578 -0.639967 4.73777 0.576287 0.115422 4.77931 -15.8674 5.11938 -11.1468 -15.7731 16.2693 -8.75677 -0.0 0.0 -0.0 -9.5017 12.6317 -14.7965 -7.16585 -24.2556 74.4927 0.227333 -6.42539 0.0127604 -32.8314 -2.22302 3.49973 2.93597 5.10588 21.9883 -0.0 0.0 -0.0 10.7587 7.91321 -21.5014 0.0569186 6.90916 -72.3734 2.13337 46.5763 -0.918337 16.8017 -0.282978 2.11994 1.20966 3.27368 -6.76493 0.0 0.0 0.0 17.6892 -0.93723 -6.65362 -54.7183 -1.65745 7.91842 40.0684 1.80819 -4.87101 -30.6101 0.0 0.0 -0.0 0.0 -0.0 7.70987 15.1316 -5.56302 -3.99863 -0.143859 -0.596682 36.3957 -24.2859 4.78754 -24.4823 0.0 0.0 0.0 0.0 0.0 
2480.45354646 739.337 -1477.39006117 178.646770953 66.561923953 176.13577167 0.91468 0.258505 4.7761 0.927364 -0.0455802 4.78285 0.926162 -0.976466 4.68256 0.895648 -0.225572 4.77776 -16.1833 5.05748 -12.691 -16.0179 16.989 -10.2096 -0.0 0.0 -0.0 -9.67542 13.4212 -14.8179 -8.58677 -24.6355 74.4965 0.297497 -8.38361 0.0218042 -34.9595 -2.43175 3.67565 3.02553 7.45973 23.4692 -0.0 0.0 -0.0 11.0036 5.26743 -21.9894 2.50587 7.1841 -71.117 2.4766 50.8083 -1.17634 14.238 -0.280216 1.79253 1.48297 6.5961 -7.22848 0.0 0.0 0.0 20.3132 0.409213 -7.22328 -43.6342 -0.71401 6.49939 39.3807 6.28547 -4.80492 -32.2281 0.0 0.0 -0.0 0.0 -0.0 8.15607 14.7689 -5.64328 -3.36556 -0.123866 -0.501582 38.0278 -22.4005 4.90013 -26.2096 0.0 0.0 0.0 0.0 0.0 
2471.62136901 742.722 -1471.21975721 -178.849144566 63.6533930004 174.421440462 1.10628 0.0495655 4.74348 1.11875 -0.252031 4.73705 1.09952 -1.1567 4.60086 1.07023 -0.416417 4.72546 -16.118 4.85073 -13.5599 -15.888 17.1104 -11.1242 -0.0 0.0 -0.0 -9.82624 13.7505 -14.9648 -9.03683 -24.7086 74.371 0.341475 -9.60129 0.0286784 -35.6402 -2.49988 3.73028 3.05151 8.18076 23.9044 -0.0 0.0 -0.0 11.1514 3.65018 -22.2538 2.03417 6.77176 -70.7974 2.59467 52.1078 -1.26869 12.5967 -0.270759 1.58311 1.62637 8.35625 -7.45348 0.0 0.0 0.0 21.0173 0.781579 -7.24028 -36.48 -0.258149 5.49921 38.002 7.74421 -4.68513 -33.5584 0.0 0.0 -0.0 0.0 -0.0 8.13481 14.5518 -5.96713 -2.24519 -0.0859108 -0.33383 37.9119 -21.2609 4.86006 -27.0402 0.0 0.0 0.0 0.0 0.0 
2399.19380747 748.562 -1530.84735028 -156.306842925 73.5607578874 150.34816684 3.01871 0.577289 4.63905 3.03063 0.281253 4.66631 3.04976 -0.459611 4.65216 3.01968 0.280054 4.66638 -10.122 4.71817 -5.35037 -10.083 12.4871 -4.03587 -0.0 0.0 -0.0 -7.44188 1.33812 -14.3583 -6.71084 -29.9866 72.1023 0.796798 -21.5396 0.151564 -40.3043 -2.98358 4.08243 3.23338 13.2066 26.8237 -0.0 0.0 -0.0 10.8949 -4.01068 -21.2092 -11.9398 4.92797 -70.7473 1.99501 44.6569 -0.81944 -4.33022 0.172551 -0.525797 2.29962 8.80374 -11.8696 0.0 0.0 0.0 20.2073 -1.10152 -0.11508 -3.40287 0.125074 0.507181 10.9569 -0.726785 -1.56962 -39.8892 0.0 0.0 -0.0 0.0 -0.0 8.92681 12.0394 -2.28503 -2.58128 -0.0976412 -0.384075 41.8369 -20.9596 5.21917 -35.5716 0.0 0.0 0.0 0.0 0.0 
2399.44898055 748.562 -1532.61546224 -155.95835474 73.7914306154 149.98504117 3.01871 0.577289 4.63905 3.03063 0.281253 4.66631 3.04976 -0.459611 4.65216 3.01968 0.280054 4.66638 -10.122 4.71817 -5.35037 -10.083 12.4871 -4.03587 -0.0 0.0 -0.0 -7.44188 1.33812 -14.3583 -6.71084 -29.9866 72.1023 0.796798 -21.5396 0.151564 -40.3043 -2.98358 4.08243 3.23338 13.2066 26.8237 -0.0 0.0 -0.0 10.8949 -4.01068 -21.2092 -11.9398 4.92797 -70.7473 1.99501 44.6569 -0.81944 -4.33022 0.172551 -0.525797 2.29962 8.80374 -11.8696 0.0 0.0 0.0 20.2073 -1.10152 -0.11508 -3.40287 0.125074 0.507181 10.9569 -0.726785 -1.56962 -39.8892 0.0 0.0 -0.0 0.0 -0.0 8.92681 12.0394 -2.28503 -2.58128 -0.0976412 -0.384075 41.8369 -20.9596 5.21917 -35.5716 0.0 0.0 0.0 0.0 0.0 
2393.98825255 746.5 -1574.1592439 -137.00752903 80.999250723 130.600863497 3.12807 1.0297 4.50199 3.13904 0.74145 4.55823 3.19445 0.025104 4.61794 3.1655 0.753339 4.55628 -14.6977 5.24474 -4.47192 -14.7766 12.6979 -2.51254 -0.0 0.0 -0.0 -7.14146 -0.206083 -14.1417 -4.34201 -29.922 70.5359 1.12079 -29.0385 0.290266 -41.7906 -3.14357 4.18627 1.87047 16.8066 18.633 -0.0 0.0 -0.0 10.5883 -4.37681 -20.5579 -13.8207 4.31374 -71.8119 1.37832 34.3225 -0.425658 -3.50869 0.136763 -0.427054 1.86156 4.98445 -10.4927 0.0 0.0 0.0 20.5412 -1.06867 -0.323728 -9.13188 0.266914 1.37456 18.6095 -5.24725 -2.61862 -39.1806 0.0 0.0 -0.0 0.0 -0.0 8.0737 11.7751 -1.88964 -4.76344 -0.166607 -0.71185 42.3483 -19.0226 5.2164 -33.9279 0.0 0.0 0.0 0.0 0.0 
2393.55795704 746.5 -1572.39857657 -138.05286741 80.8164888075 131.659501035 3.12807 1.0297 4.50199 3.13904 0.74145 4.55823 3.19445 0.025104 4.61794 3.1655 0.753339 4.55628 -14.6977 5.24474 -4.47192 -14.7766 12.6979 -2.51254 -0.0 0.0 -0.0 -7.14146 -0.206083 -14.1417 -4.34201 -29.922 70.5359 1.12079 -29.0385 0.290266 -41.7906 -3.14357 4.18627 1.87047 16.8066 18.633 -0.0 0.0 -0.0 10.5883 -4.37681 -20.5579 -13.8207 4.31374 -71.8119 1.37832 34.3225 -0.425658 -3.50869 0.136763 -0.427054 1.86156 4.98445 -10.4927 0.0 0.0 0.0 20.5412 -1.06867 -0.323728 -9.13188 0.266914 1.37456 18.6095 -5.24725 -2.61862 -39.1806 0.0 0.0 -0.0 0.0 -0.0 8.0737 11.7751 -1.88964 -4.76344 -0.166607 -0.71185 42.3483 -19.0226 5.2164 -33.9279 0.0 0.0 0.0 0.0 0.0 
2392.849918 746.5 -1569.42673013 -139.722308963 80.5018208114 133.351366797 3.12807 1.0297 4.50199 3.13904 0.74145 4.55823 3.19445 0.025104 4.61794 3.1655 0.753339 4.55628 -14.6977 5.24474 -4.47192 -14.7766 12.6979 -2.51254 -0.0 0.0 -0.0 -7.14146 -0.206083 -14.1417 -4.34201 -29.922 70.5359 1.12079 -29.0385 0.290266 -41.7906 -3.14357 4.18627 1.87047 16.8066 18.633 -0.0 0.0 -0.0 10.5883 -4.37681 -20.5579 -13.8207 4.31374 -71.8119 1.37832 34.3225 -0.425658 -3.50869 0.136763 -0.427054 1.86156 4.98445 -10.4927 0.0 0.0 0.0 20.5412 -1.06867 -0.323728 -9.13188 0.266914 1.37456 18.6095 -5.24725 -2.61862 -39.1806 0.0 0.0 -0.0 0.0 -0.0 8.0737 11.7751 -1.88964 -4.76344 -0.166607 -0.71185 42.3483 -19.0226 5.2164 -33.9279 0.0 0.0 0.0 0.0 0.0 
2393.88553469 746.5 -1573.74193263 -137.25922594 80.9561927011 130.855713527 3.12807 1.0297 4.50199 3.13904 0.74145 4.55823 3.19445 0.025104 4.61794 3.1655 0.753339 4.55628 -14.6977 5.24474 -4.47192 -14.7766 12.6979 -2.51254 -0.0 0.0 -0.0 -7.14146 -0.206083 -14.1417 -4.34201 -29.922 70.5359 1.12079 -29.0385 0.290266 -41.7906 -3.14357 4.18627 1.87047 16.8066 18.633 -0.0 0.0 -0.0 10.5883 -4.37681 -20.5579 -13.8207 4.31374 -71.8119 1.37832 34.3225 -0.425658 -3.50869 0.136763 -0.427054 1.86156 4.98445 -10.4927 0.0 0.0 0.0 20.5412 -1.06867 -0.323728 -9.13188 0.266914 1.37456 18.6095 -5.24725 -2.61862 -39.1806 0.0 0.0 -0.0 0.0 -0.0 8.0737 11.7751 -1.88964 -4.76344 -0.166607 -0.71185 42.3483 -19.0226 5.2164 -33.9279 0.0 0.0 0.0 0.0 0.0 
2393.8609756 746.5 -1573.64188262 -137.319203057 80.9458451965 130.916446511 3.12807 1.0297 4.50199 3.13904 0.74145 4.55823 3.19445 0.025104 4.61794 3.1655 0.753339 4.55628 -14.6977 5.24474 -4.47192 -14.7766 12.6979 -2.51254 -0.0 0.0 -0.0 -7.14146 -0.206083 -14.1417 -4.34201 -29.922 70.5359 1.12079 -29.0385 0.290266 -41.7906 -3.14357 4.18627 1.87047 16.8066 18.633 -0.0 0.0 -0.0 10.5883 -4.37681 -20.5579 -13.8207 4.31374 -71.8119 1.37832 34.3225 -0.425658 -3.50869 0.136763 -0.427054 1.86156 4.98445 -10.4927 0.0 0.0 0.0 20.5412 -1.06867 -0.323728 -9.13188 0.266914 1.37456 18.6095 -5.24725 -2.61862 -39.1806 0.0 0.0 -0.0 0.0 -0.0 8.0737 11.7751 -1.88964 -4.76344 -0.166607 -0.71185 42.3483 -19.0226 5.2164 -33.9279 0.0 0.0 0.0 0.0 0.0 
2392.0108429 746.5 -1565.7736386 -141.622771241 80.1054335016 135.279355611 3.12807 1.0297 4.50199 3.13904 0.74145 4.55823 3.19445 0.025104 4.61794 3.1655 0.753339 4.55628 -14.6977 5.24474 -4.47192 -14.7766 12.6979 -2.51254 -0.0 0.0 -0.0 -7.14146 -0.206083 -14.1417 -4.34201 -29.922 70.5359 1.12079 -29.0385 0.290266 -41.7906 -3.14357 4.18627 1.87047 16.8066 18.633 -0.0 0.0 -0.0 10.5883 -4.37681 -20.5579 -13.8207 4.31374 -71.8119 1.37832 34.3225 -0.425658 -3.50869 0.136763 -0.427054 1.86156 4.98445 -10.4927 0.0 0.0 0.0 20.5412 -1.06867 -0.323728 -9.13188 0.266914 1.37456 18.6095 -5.24725 -2.61862 -39.1806 0.0 0.0 -0.0 0.0 -0.0 8.0737 11.7751 -1.88964 -4.76344 -0.166607 -0.71185 42.3483 -19.0226 5.2164 -33.9279 0.0 0.0 0.0 0.0 0.0 
2391.3964996 746.5 -1562.99917868 -142.96358228 79.7980965253 136.64104659 3.12807 1.0297 4.50199 3.13904 0.74145 4.55823 3.19445 0.025104 4.61794 3.1655 0.753339 4.55628 -14.6977 5.24474 -4.47192 -14.7766 12.6979 -2.51254 -0.0 0.0 -0.0 -7.14146 -0.206083 -14.1417 -4.34201 -29.922 70.5359 1.12079 -29.0385 0.290266 -41.7906 -3.14357 4.18627 1.87047 16.8066 18.633 -0.0 0.0 -0.0 10.5883 -4.37681 -20.5579 -13.8207 4.31374 -71.8119 1.37832 34.3225 -0.425658 -3.50869 0.136763 -0.427054 1.86156 4.98445 -10.4927 0.0 0.0 0.0 20.5412 -1.06867 -0.323728 -9.13188 0.266914 1.37456 18.6095 -5.24725 -2.61862 -39.1806 0.0 0.0 -0.0 0.0 -0.0 8.0737 11.7751 -1.88964 -4.76344 -0.166607 -0.71185 42.3483 -19.0226 5.2164 -33.9279 0.0 0.0 0.0 0.0 0.0 
2390.36226874 746.5 -1558.11246639 -145.131247398 79.2452759268 138.8454385 3.12807 1.0297 4.50199 3.13904 0.74145 4.55823 3.19445 0.025104 4.61794 3.1655 0.753339 4.55628 -14.6977 5.24474 -4.47192 -14.7766 12.6979 -2.51254 -0.0 0.0 -0.0 -7.14146 -0.206083 -14.1417 -4.34201 -29.922 70.5359 1.12079 -29.0385 0.290266 -41.7906 -3.14357 4.18627 1.87047 16.8066 18.633 -0.0 0.0 -0.0 10.5883 -4.37681 -20.5579 -13.8207 4.31374 -71.8119 1.37832 34.3225 -0.425658 -3.50869 0.136763 -0.427054 1.86156 4.98445 -10.4927 0.0 0.0 0.0 20.5412 -1.06867 -0.323728 -9.13188 0.266914 1.37456 18.6095 -5.24725 -2.61862 -39.1806 0.0 0.0 -0.0 0.0 -0.0 8.0737 11.7751 -1.88964 -4.76344 -0.166607 -0.71185 42.3483 -19.0226 5.2164 -33.9279 0.0 0.0 0.0 0.0 0.0 
2412.00727 754.397 -1648.9063679 -51.8158238231 81.2067201368 45.4031525461 3.40619 0.902443 4.19344 3.41575 0.634022 4.24225 3.45879 -0.0124288 4.28926 3.43374 0.664518 4.23758 -15.8851 3.10727 -4.84735 -15.8941 8.76069 -3.48777 -0.0 0.0 -0.0 -6.2185 -1.21694 -12.4917 3.14733 -25.215 68.5936 2.1847 -47.2555 0.955826 -44.0014 -3.38641 4.33301 0.209956 20.2158 9.41542 -0.0 0.0 -0.0 11.2957 -5.46922 -21.8751 -18.9586 0.330911 -70.5378 0.42227 11.815 -0.0436933 -3.80117 0.149342 -0.462266 0.922625 1.48418 -5.56544 0.0 0.0 0.0 22.3339 -0.798689 -0.0321463 -12.9826 0.313234 1.96349 17.8033 -9.06417 -2.5582 -37.9705 0.0 0.0 -0.0 0.0 -0.0 7.71855 10.9912 -1.22571 -5.16721 -0.177996 -0.77277 37.1742 -17.2292 4.70529 -32.4167 0.0 0.0 0.0 0.0 0.0 
2408.50172075 754.397 -1640.90351789 -58.289825137 81.8800802478 51.9480492972 3.40619 0.902443 4.19344 3.41575 0.634022 4.24225 3.45879 -0.0124288 4.28926 3.43374 0.664518 4.23758 -15.8851 3.10727 -4.84735 -15.8941 8.76069 -3.48777 -0.0 0.0 -0.0 -6.2185 -1.21694 -12.4917 3.14733 -25.215 68.5936 2.1847 -47.2555 0.955826 -44.0014 -3.38641 4.33301 0.209956 20.2158 9.41542 -0.0 0.0 -0.0 11.2957 -5.46922 -21.8751 -18.9586 0.330911 -70.5378 0.42227 11.815 -0.0436933 -3.80117 0.149342 -0.462266 0.922625 1.48418 -5.56544 0.0 0.0 0.0 22.3339 -0.798689 -0.0321463 -12.9826 0.313234 1.96349 17.8033 -9.06417 -2.5582 -37.9705 0.0 0.0 -0.0 0.0 -0.0 7.71855 10.9912 -1.22571 -5.16721 -0.177996 -0.77277 37.1742 -17.2292 4.70529 -32.4167 0.0 0.0 0.0 0.0 0.0 
